<?xml version="1.0" encoding="UTF-8" standalone="no"?>
<!-- Generator: Adobe Illustrator 26.0.2, SVG Export Plug-In . SVG Version: 6.00 Build 0)  -->

<svg
  width="500px" height="500px"
   version="1.1"
   id="Layer_1"
   x="0px"
   y="0px"
   viewBox="0 0 340 200"
   style="enable-background:new 0 0 340 200;"
   xml:space="preserve"
   sodipodi:docname="logo_jira_on_fire.svg"
   inkscape:version="1.1.2 (0a00cf5339, 2022-02-04)"
   xmlns:inkscape="http://www.inkscape.org/namespaces/inkscape"
   xmlns:sodipodi="http://sodipodi.sourceforge.net/DTD/sodipodi-0.dtd"
   xmlns="http://www.w3.org/2000/svg"
   xmlns:svg="http://www.w3.org/2000/svg"><defs
   id="defs613" /><sodipodi:namedview
   id="namedview611"
   pagecolor="#ffffff"
   bordercolor="#666666"
   borderopacity="1.0"
   inkscape:pageshadow="2"
   inkscape:pageopacity="0.0"
   inkscape:pagecheckerboard="0"
   showgrid="false"
   inkscape:zoom="4.25"
   inkscape:cx="170"
   inkscape:cy="77.411765"
   inkscape:window-width="1920"
   inkscape:window-height="1062"
   inkscape:window-x="0"
   inkscape:window-y="0"
   inkscape:window-maximized="1"
   inkscape:current-layer="g608" />
<style
   type="text/css"
   id="style562">
	.st0{fill:#20385B;}
	.st1{fill:#0082FF;}
	.st2{fill:url(#SVGID_1_);}
	.st3{fill:url(#SVGID_00000160896060327195637080000015721837646796660413_);}
	.st4{fill:#0052CC;}
</style>
<g
   id="g608">


<g
   id="g1272"
   transform="matrix(0.77263592,0,0,0.77263592,16.498877,-242.93321)"><g
     id="g1248"><path
       style="fill:#fc4e28"
       d="m 243.438,431.305 c -0.456,5.345 -1.58,11.089 -5.681,14.685 -3.457,3.031 -9.124,4.255 -13.02,1.305 -4.355,-3.298 -3.871,-9.546 -1.999,-14.056 1.287,-3.1 3.088,-5.967 4.301,-9.102 1.06,-2.739 1.558,-5.615 1.572,-8.55 0.018,-3.864 -0.754,-7.678 -2.253,-11.197 0.237,4.317 0.088,8.657 -1.248,12.787 -1.607,4.97 -5.149,9.274 -10.029,11.308 -4.216,1.758 -8.894,1.246 -12.451,-1.68 -3.417,-2.81 -5.161,-7.397 -5.322,-11.733 -0.429,-11.514 8.956,-19.994 12.441,-30.277 5.947,-17.546 -9.588,-34.34 -6.211,-51.832 -3.627,3.793 -3.284,10.691 -2.375,15.415 1.197,6.216 3.098,12.637 0.945,18.881 -1.829,5.306 -6.551,8.991 -12.307,8.342 -4.083,-0.46 -7.831,-2.608 -10.485,-5.7 1.686,4.863 2.876,10.464 1.145,15.384 -1.833,5.21 -6.743,8.265 -12.214,7.887 -5.665,-0.392 -10.604,-3.67 -13.476,-8.51 -2.359,-3.975 -3.36,-8.53 -3.743,-13.12 -0.307,1.91 -0.164,3.921 0.264,5.791 0.933,4.073 3.191,7.656 5.159,11.289 3.053,5.637 5.681,12.479 2.773,18.742 -2.599,5.598 -8.972,7.114 -14.539,5.604 -9.437,-2.56 -15.242,-11.571 -16.507,-20.981 -0.403,3.541 -0.035,7.169 1.093,10.62 1.757,5.373 6.405,9.622 6.886,15.423 0.411,4.956 -2.885,9.564 -8.203,8.891 -5.717,-0.723 -8.681,-5.722 -10.487,-10.657 -1.41,-3.849 -2.79,-8.877 -6.27,-11.374 4.582,9.098 8.67,19.144 5.428,29.315 -1.288,4.042 -3.677,7.727 -7.204,10.152 -3.094,2.128 -6.953,2.772 -10.624,2.18 -3.455,-0.557 -6.754,-2.344 -8.799,-5.227 -2.286,-3.222 -2.319,-7.382 -1.18,-11.036 1.313,-4.212 3.817,-7.912 5.495,-11.969 1.714,-4.142 1.913,-8.125 0.568,-12.401 -1.915,-6.09 -6.425,-12.532 -6.259,-19.105 -1.917,4.514 0.012,10.557 1.551,14.826 1.895,5.256 3.754,10.972 1.56,16.454 -1.844,4.608 -6.482,7.161 -11.337,5.917 -4.733,-1.213 -8.624,-5.352 -9.789,-10.057 -0.2,-0.809 -0.339,-1.622 -0.43,-2.438 -0.057,1.591 0.002,3.19 0.195,4.781 0.41,3.379 1.423,6.708 3.004,9.723 1.671,3.187 3.871,6.082 5.321,9.388 1.212,2.765 1.828,5.615 1.171,8.604 -0.545,2.477 -1.938,4.957 -4.178,6.263 -2.199,1.283 -5.003,1.174 -7.147,-0.177 -2.35,-1.48 -3.814,-4.019 -4.786,-6.55 -0.404,-1.054 -0.691,-2.22 -0.942,-3.431 -0.015,2.597 -0.441,5.191 -1.329,7.651 -1.832,5.074 -5.323,9.274 -9.834,12.031 14.767,-0.535 29.57,-0.296 44.339,-0.322 34.224,-0.059 68.448,-0.019 102.672,0.037 16.802,0.028 33.605,0.087 50.407,0.081 -2.629,-2.552 -3.876,-6.628 -4.243,-10.323 -0.567,-5.704 1.394,-12.681 -1.389,-17.952 z"
       id="path1188" /><g
       id="g1202"><g
         id="g1192"><path
           style="fill:#591f10"
           d="m 38.074,461.859 c 17.168,1.297 34.394,1.017 51.599,1.047 17.2,0.03 34.4,0.038 51.6,0.028 34.224,-0.019 68.448,-0.073 102.673,-0.129 9.653,-0.016 19.306,-0.001 28.959,0.004 4.739,0.003 9.477,0.005 14.216,0.007 4.908,0.003 9.852,0.194 14.743,-0.219 1.807,-0.152 1.81,-2.66 0,-2.813 -4.372,-0.369 -8.776,-0.222 -13.163,-0.22 -4.212,0.002 -8.424,0.004 -12.637,0.007 -8.6,0.004 -17.2,0.009 -25.8,0.013 -17.2,0.009 -34.4,-0.054 -51.6,-0.082 -34.224,-0.056 -68.449,-0.096 -102.673,-0.037 -19.3,0.033 -38.66,-0.397 -57.918,1.058 -0.858,0.064 -0.859,1.271 10e-4,1.336 z"
           id="path1190" /></g><g
         id="g1196"><path
           style="fill:#591f10"
           d="m 47.527,461.798 c 6.499,-2.414 11.601,-7.51 13.959,-14.043 2.567,-7.11 1.363,-15.336 -2.899,-21.537 -0.483,0.483 -0.966,0.966 -1.449,1.449 5.415,3.077 4.662,10.765 6.62,15.867 0.971,2.531 2.436,5.07 4.786,6.55 2.144,1.35 4.948,1.459 7.147,0.177 2.24,-1.306 3.633,-3.786 4.178,-6.263 0.657,-2.988 0.041,-5.839 -1.171,-8.604 -1.449,-3.306 -3.649,-6.201 -5.321,-9.388 -1.581,-3.015 -2.594,-6.344 -3.004,-9.723 -0.917,-7.562 1.023,-15.311 5.544,-21.453 -0.717,-0.302 -1.435,-0.605 -2.152,-0.907 -2.452,6.239 -4.826,13.277 -3.156,20.018 1.165,4.705 5.056,8.844 9.789,10.057 4.855,1.244 9.493,-1.309 11.337,-5.917 2.194,-5.482 0.335,-11.198 -1.56,-16.454 -1.968,-5.458 -4.604,-13.831 1.026,-18.177 -0.539,-0.414 -1.078,-0.829 -1.617,-1.243 -3.36,8.16 2.938,16.195 5.298,23.699 1.345,4.277 1.145,8.26 -0.568,12.401 -1.679,4.057 -4.182,7.757 -5.495,11.969 -1.14,3.655 -1.106,7.815 1.18,11.037 2.046,2.883 5.344,4.669 8.799,5.227 3.672,0.592 7.53,-0.052 10.624,-2.18 3.527,-2.425 5.916,-6.11 7.204,-10.152 3.613,-11.336 -1.876,-22.52 -7.011,-32.405 -0.453,0.589 -0.905,1.178 -1.358,1.767 5.756,1.295 7.457,7.911 9.21,12.697 1.807,4.934 4.77,9.933 10.488,10.657 5.318,0.673 8.614,-3.935 8.203,-8.891 -0.481,-5.8 -5.129,-10.05 -6.886,-15.423 -2.09,-6.391 -1.595,-13.393 1.641,-19.319 -0.791,-0.334 -1.582,-0.667 -2.374,-1.001 -2.699,12.07 3.431,27.232 16.146,30.681 5.566,1.51 11.939,-0.006 14.539,-5.604 2.908,-6.263 0.28,-13.106 -2.773,-18.742 -1.967,-3.633 -4.226,-7.216 -5.159,-11.289 -0.807,-3.525 -0.654,-7.564 1.767,-10.451 -0.747,-0.309 -1.494,-0.619 -2.241,-0.928 -0.006,6.371 0.633,13.114 3.952,18.707 2.872,4.84 7.81,8.118 13.476,8.51 5.471,0.378 10.381,-2.677 12.214,-7.887 1.915,-5.442 0.259,-11.719 -1.693,-16.906 -2.4,-6.376 -6.074,-14.378 -2.052,-20.862 -0.842,-0.228 -1.683,-0.456 -2.525,-0.684 -0.217,6.662 -0.204,13.701 2.91,19.778 2.464,4.809 7.29,8.38 12.701,8.99 5.755,0.648 10.477,-3.036 12.307,-8.342 2.153,-6.244 0.251,-12.665 -0.945,-18.881 -1.099,-5.712 -1.389,-14.618 5.195,-17.348 -0.602,-0.602 -1.204,-1.204 -1.806,-1.806 -6.715,18.849 11.567,36.779 5.197,55.572 -3.485,10.283 -12.87,18.763 -12.442,30.277 0.162,4.336 1.906,8.923 5.322,11.733 3.558,2.926 8.235,3.438 12.451,1.68 4.88,-2.035 8.422,-6.338 10.029,-11.308 1.967,-6.084 1.364,-12.625 0.736,-18.873 -0.847,0.229 -1.693,0.459 -2.54,0.688 3.519,4.805 5.332,10.647 5.305,16.595 -0.014,2.935 -0.512,5.811 -1.572,8.55 -1.213,3.135 -3.013,6.001 -4.301,9.102 -1.873,4.51 -2.356,10.758 1.998,14.056 3.896,2.951 9.564,1.727 13.021,-1.305 4.919,-4.314 5.558,-11.719 5.895,-17.816 -0.631,0.261 -1.262,0.523 -1.892,0.784 5.152,5.393 2.411,13.7 3.068,20.302 0.552,5.552 3.071,11.987 9.322,12.773 1.134,0.143 1.124,-1.64 0,-1.781 -6.12,-0.77 -7.589,-8.892 -7.425,-13.867 0.211,-6.426 1.418,-13.843 -3.397,-18.995 -0.697,-0.746 -1.832,-0.125 -1.892,0.784 -0.349,5.261 -0.623,11.547 -4.46,15.621 -3.031,3.219 -8.989,5.302 -12.398,1.482 -3.921,-4.393 -1.217,-11.086 1.187,-15.461 2.681,-4.878 4.775,-9.76 5.009,-15.403 0.247,-5.959 -1.6,-11.987 -5.113,-16.797 -0.703,-0.963 -2.688,-0.805 -2.54,0.688 0.92,9.298 1.851,21.383 -7.536,26.852 -3.549,2.068 -8.009,2.276 -11.226,-0.547 -3.048,-2.675 -4.361,-6.945 -4.153,-10.91 0.28,-5.322 2.92,-10.218 5.57,-14.711 2.66,-4.512 5.528,-8.967 7.102,-14.007 2.735,-8.755 0.33,-17.849 -2.291,-26.312 -2.84,-9.169 -6.582,-19.124 -3.202,-28.664 0.348,-0.982 -0.785,-2.231 -1.806,-1.806 -4.971,2.071 -7.396,7.035 -7.923,12.179 -0.678,6.614 2.271,12.903 2.562,19.442 0.219,4.923 -1.308,11.143 -6.667,12.709 -4.676,1.366 -9.903,-1.383 -12.706,-5.083 -4.352,-5.747 -4.159,-13.775 -3.943,-20.61 0.044,-1.384 -1.841,-1.789 -2.525,-0.684 -6.691,10.812 3.876,22.334 4.206,33.336 0.151,5.015 -2.202,9.919 -7.514,10.901 -4.72,0.873 -9.868,-1.495 -12.763,-5.204 -4.201,-5.384 -4.862,-12.643 -4.86,-19.228 0,-1.064 -1.486,-1.828 -2.241,-0.928 -3.979,4.744 -3.41,11.374 -1.14,16.763 2.598,6.167 7.468,11.73 7.898,18.641 0.179,2.874 -0.391,5.931 -2.434,8.085 -1.747,1.843 -4.198,2.625 -6.698,2.589 -5.804,-0.084 -10.889,-3.812 -14.027,-8.475 -3.847,-5.717 -5.289,-12.919 -3.759,-19.652 0.316,-1.391 -1.638,-2.338 -2.374,-1.001 -2.678,4.864 -3.777,10.506 -3.12,16.023 0.335,2.813 1.088,5.513 2.31,8.071 1.212,2.536 2.944,4.766 4.305,7.217 1.222,2.201 2.171,4.781 1.603,7.329 -0.529,2.369 -2.317,4.089 -4.821,4.033 -5.851,-0.132 -8.194,-6.382 -9.815,-10.984 -1.799,-5.11 -4.353,-11.107 -10.236,-12.415 -1.041,-0.232 -1.853,0.82 -1.358,1.767 4.36,8.344 9.282,17.69 7.647,27.427 -1.264,7.533 -6.601,14.714 -14.915,14.113 -3.221,-0.233 -6.656,-1.696 -8.526,-4.428 -2.153,-3.145 -1.707,-7.009 -0.423,-10.398 1.418,-3.744 3.649,-7.123 5.182,-10.819 1.542,-3.718 2.037,-7.483 1.161,-11.434 -0.976,-4.396 -3.196,-8.383 -4.883,-12.523 -1.595,-3.915 -2.744,-8.076 -1.074,-12.162 0.471,-1.153 -1.1,-1.645 -1.839,-1.071 -3.818,2.965 -4.651,8.18 -3.996,12.713 0.845,5.844 4.345,11.062 4.759,16.983 0.315,4.511 -1.453,10.39 -6.77,10.802 -4.41,0.341 -8.709,-3.19 -10.408,-7.053 -2.91,-6.618 0.303,-14.338 2.584,-20.617 0.488,-1.343 -1.427,-1.911 -2.152,-0.907 -3.738,5.172 -5.744,11.469 -5.906,17.836 -0.162,6.408 1.649,12.468 4.979,17.905 3.093,5.051 7.585,11.241 3.719,17.139 -1.377,2.1 -3.882,3.215 -6.286,2.169 -2.508,-1.092 -3.972,-3.909 -4.812,-6.363 -1.94,-5.665 -1.392,-13.135 -7.371,-16.489 -0.87,-0.488 -2.081,0.54 -1.449,1.449 3.978,5.72 5.145,13.145 2.86,19.762 -2.062,5.97 -6.883,10.929 -12.66,13.399 -0.763,0.319 -0.217,1.634 0.568,1.342 z"
           id="path1194" /></g><g
         id="g1200"><path
           style="fill:#591f10"
           d="m 251.019,461.803 c 7.226,1.735 13.39,-4.889 15.042,-11.375 2.226,-8.737 -1.143,-17.657 0.121,-26.459 0.586,-4.081 2.167,-8.181 5.521,-10.77 -0.461,-0.354 -0.921,-0.708 -1.382,-1.063 -1.418,5.196 -2.06,10.442 -1.981,15.825 0.054,3.677 0.582,8.035 5.019,8.616 3.757,0.491 7.131,-2.042 8.65,-5.326 0.909,-1.965 1.26,-4.159 1.537,-6.288 0.347,-2.663 0.609,-5.337 0.889,-8.007 0.672,-6.411 1.344,-12.822 2.016,-19.232 -0.652,0.088 -1.304,0.177 -1.957,0.265 2.386,10.548 5.115,22.343 0.187,32.598 -2.268,4.719 -5.521,8.935 -7.198,13.939 -1.43,4.265 -1.737,9.682 1.166,13.428 2.497,3.222 7.444,5.761 11.196,3.146 0.395,-0.275 0.169,-0.964 -0.343,-0.814 -4.032,1.179 -8.072,-0.744 -10.067,-4.362 -2.39,-4.333 -0.892,-9.903 1.02,-14.116 1.989,-4.382 4.704,-8.395 6.49,-12.877 1.863,-4.677 2.271,-9.647 2.151,-14.635 -0.138,-5.697 -1.429,-11.3 -2.681,-16.836 -0.265,-1.173 -1.847,-0.78 -1.957,0.265 -0.5,4.767 -0.999,9.534 -1.499,14.301 -0.491,4.685 -0.796,9.429 -1.474,14.09 -0.522,3.588 -1.773,7.879 -5.659,9.028 -1.576,0.466 -3.491,0.401 -4.733,-0.805 -1.585,-1.54 -1.541,-4.095 -1.508,-6.142 0.083,-5.238 1.038,-10.554 2.55,-15.56 0.222,-0.736 -0.704,-1.557 -1.382,-1.063 -5.695,4.159 -7.156,11.683 -6.886,18.352 0.337,8.296 3.081,17.856 -2.095,25.239 -2.324,3.314 -6.178,5.915 -10.379,5.283 -0.871,-0.132 -1.276,1.138 -0.374,1.355 z"
           id="path1198" /></g></g><path
       style="fill:#fc8428"
       d="m 95.992,459.465 c 34.224,-0.059 68.448,-0.019 102.672,0.037 13.897,0.023 27.794,0.06 41.691,0.071 -1.757,-2.169 -2.407,-5.447 -1.898,-8.169 -3.693,1.383 -7.459,2.782 -11.398,2.982 -3.939,0.201 -8.15,-0.985 -10.688,-4.004 -1.838,-2.185 -2.618,-5.104 -2.707,-7.958 -0.09,-2.854 0.218,-5.85 0.761,-8.653 -3.531,3.215 -8.938,3.853 -13.457,2.308 -4.519,-1.544 -8.193,-5 -10.82,-8.988 -3.789,-5.753 -5.619,-12.911 -4.374,-19.687 1.575,-8.576 7.426,-16.157 13.768,-22.494 -3.006,2.035 -6.88,2.918 -10.49,2.519 -0.156,5.039 -2.758,9.947 -6.842,12.904 -4.083,2.957 -8.592,3.962 -13.429,2.539 0.416,6.7 -2.834,13.514 -8.302,17.407 -5.468,3.893 -13.04,5.272 -19.234,2.687 -1.183,3.889 -3.797,7.324 -7.228,9.503 -3.432,2.178 -8.328,3.457 -12.351,2.872 0.451,8.678 -6.074,17.196 -14.57,19.021 -8.496,1.825 -18.248,-3.592 -21.402,-11.689 0.224,4.997 -2.941,9.973 -7.562,11.889 -4.621,1.916 -10.436,0.327 -13.813,-3.363 -0.344,2.989 -1.465,5.873 -3.178,8.345 11.614,-0.197 23.243,-0.059 34.851,-0.079 z"
       id="path1204" /><g
       id="g1210"><path
         style="fill:#fed242"
         d="m 203.874,454.852 c -3.175,-3.982 -5.405,-9.668 -5.202,-14.757 -5.761,-0.194 -11.438,-2.34 -15.888,-6.004 -4.449,-3.664 -7.946,-9.284 -9.241,-14.901 -4.964,8.286 -14.132,12.248 -23.788,12.029 -4.774,8.804 -14.714,14.21 -24.659,13.029 -0.731,7.452 -7.191,13.395 -14.497,15.21 29.355,-0.028 58.71,-0.004 88.065,0.044 3.48,0.006 6.96,0.011 10.44,0.018 -1.98,-1.264 -3.765,-2.832 -5.23,-4.668 z"
         id="path1206" /><path
         style="fill:#fed242"
         d="m 95.992,459.465 c 1.025,-0.002 2.051,0 3.076,-10e-4 -5.035,-1.062 -9.864,-3.385 -13.922,-6.508 -0.598,2.34 -1.668,4.555 -3.11,6.491 4.653,0.01 9.306,0.026 13.956,0.018 z"
         id="path1208" /></g><path
       style="fill:#fc4e28"
       d="m 278.649,457.952 c -2.903,-3.746 -2.596,-9.163 -1.166,-13.428 1.677,-5.003 4.93,-9.22 7.198,-13.939 4.019,-8.362 2.945,-17.748 1.118,-26.647 -0.455,4.339 -0.909,8.678 -1.364,13.017 -0.28,2.67 -0.542,5.345 -0.889,8.007 -0.277,2.128 -0.629,4.323 -1.537,6.287 -1.519,3.285 -4.893,5.818 -8.65,5.326 -4.437,-0.58 -4.965,-4.939 -5.019,-8.616 -0.063,-4.276 0.337,-8.465 1.212,-12.611 -1.914,2.445 -2.928,5.536 -3.37,8.62 -1.263,8.802 2.106,17.722 -0.12,26.459 -0.876,3.438 -3.027,6.902 -5.924,9.152 5.309,-0.003 10.617,-0.005 15.926,-0.008 1.374,-0.001 2.748,-0.001 4.122,-0.002 -0.575,-0.502 -1.095,-1.048 -1.537,-1.617 z"
       id="path1212" /><path
       style="fill:#fc8428"
       d="m 275.551,459.571 c -2.826,-5.995 -2.477,-13.949 0.756,-19.67 -1.828,1.771 -4.993,2.29 -6.873,0.575 1.341,6.71 -0.695,13.975 -5.207,19.101 3.774,-0.002 7.549,-0.004 11.324,-0.006 z"
       id="path1214" /><path
       style="fill:#fed242"
       d="m 273.135,459.573 c -0.917,-2.016 -1.623,-4.139 -2.28,-6.25 -0.593,2.228 -1.575,4.35 -2.877,6.252 1.719,-10e-4 3.438,-0.002 5.157,-0.002 z"
       id="path1216" /><path
       style="fill:#fc4e28"
       d="m 106.369,384.466 c -2.049,-2.383 -2.399,-5.833 -1.858,-8.928 0.541,-3.095 1.854,-5.994 2.799,-8.99 0.945,-2.997 1.517,-6.267 0.551,-9.257 2.755,2.45 4.221,6.276 3.808,9.94 -0.351,3.122 -1.941,5.941 -3.297,8.775 -1.356,2.834 -2.525,5.965 -1.959,9.055"
       id="path1218" /><path
       style="fill:#fc4e28"
       d="m 218.231,367.464 c 2.048,-2.383 2.399,-5.833 1.858,-8.929 -0.541,-3.095 -1.854,-5.994 -2.799,-8.99 -0.945,-2.997 -1.517,-6.267 -0.551,-9.257 -2.755,2.45 -4.221,6.276 -3.808,9.94 0.352,3.121 1.941,5.941 3.297,8.775 1.356,2.834 2.525,5.965 1.959,9.055"
       id="path1220" /><path
       style="fill:#fed242"
       d="m 158.61,354.172 c -5.165,-2.883 -7.984,-9.421 -6.534,-15.156 0.636,-2.515 1.974,-4.786 2.948,-7.191 0.974,-2.404 1.577,-5.138 0.682,-7.572 3.4,3.832 4.995,9.202 4.238,14.269 -0.394,2.637 -1.381,5.146 -1.966,7.747 -0.585,2.601 -0.737,5.445 0.469,7.823"
       id="path1222" /><path
       style="fill:#fc8428"
       d="m 258.119,425.298 c -5.165,-2.883 -7.984,-9.421 -6.534,-15.156 0.636,-2.515 1.974,-4.786 2.948,-7.191 0.974,-2.404 1.577,-5.138 0.682,-7.572 3.4,3.832 4.995,9.202 4.238,14.269 -0.394,2.637 -1.381,5.147 -1.966,7.747 -0.585,2.601 -0.737,5.445 0.469,7.823"
       id="path1224" /><path
       style="fill:#fc8428"
       d="m 46.097,452.161 c 5.165,-2.883 7.984,-9.421 6.534,-15.156 -0.636,-2.515 -1.974,-4.786 -2.948,-7.191 -0.974,-2.404 -1.577,-5.137 -0.682,-7.572 -3.401,3.832 -4.996,9.202 -4.238,14.269 0.394,2.637 1.381,5.147 1.966,7.747 0.585,2.601 0.737,5.445 -0.469,7.823"
       id="path1226" /><g
       id="g1230"><path
         style="fill:#591f10"
         d="m 106.883,383.952 c -3.018,-3.801 -1.631,-9.028 -0.153,-13.145 1.616,-4.501 3.59,-8.956 2.146,-13.798 -0.586,0.341 -1.172,0.682 -1.758,1.023 3.791,3.488 4.257,8.401 2.438,13.018 -1.805,4.583 -4.679,9.055 -3.831,14.198 0.15,0.911 1.512,0.517 1.379,-0.38 -0.857,-5.77 3.943,-10.359 5.268,-15.687 1.139,-4.577 -0.295,-9.434 -3.766,-12.636 -0.746,-0.688 -2.068,-0.022 -1.758,1.023 2.691,9.062 -8.021,19.049 -0.992,27.41 0.607,0.725 1.598,-0.307 1.027,-1.026 z"
         id="path1228" /></g><g
       id="g1234"><path
         style="fill:#591f10"
         d="m 218.744,367.978 c 7.028,-8.36 -3.683,-18.35 -0.992,-27.41 0.31,-1.044 -1.011,-1.712 -1.758,-1.023 -3.471,3.201 -4.905,8.059 -3.766,12.636 1.325,5.328 6.125,9.918 5.268,15.687 -0.133,0.895 1.228,1.293 1.379,0.38 0.848,-5.143 -2.025,-9.614 -3.831,-14.198 -1.819,-4.617 -1.353,-9.529 2.438,-13.018 -0.586,-0.341 -1.172,-0.682 -1.758,-1.023 -1.444,4.841 0.53,9.297 2.146,13.798 1.478,4.117 2.865,9.343 -0.153,13.145 -0.571,0.717 0.419,1.75 1.027,1.026 z"
         id="path1232" /></g><g
       id="g1238"><path
         style="fill:#591f10"
         d="m 158.976,353.545 c -4.436,-2.616 -6.948,-7.901 -6.234,-13.013 0.795,-5.695 5.962,-10.485 3.946,-16.55 -0.567,0.33 -1.135,0.66 -1.702,0.991 3.351,3.861 4.818,9.18 3.828,14.208 -1.012,5.139 -3.672,10.242 -1.197,15.397 0.537,1.118 2.177,0.142 1.66,-0.97 -2.48,-5.328 1.531,-11.253 1.833,-16.652 0.273,-4.898 -1.491,-9.731 -4.684,-13.422 -0.663,-0.767 -2.014,0.046 -1.702,0.991 1.102,3.334 -0.408,6.574 -1.781,9.577 -1.205,2.636 -2.245,5.296 -2.179,8.241 0.113,5.066 3.077,9.969 7.479,12.458 0.815,0.46 1.54,-0.78 0.733,-1.256 z"
         id="path1236" /></g><g
       id="g1242"><path
         style="fill:#591f10"
         d="m 258.485,424.67 c -4.436,-2.616 -6.948,-7.901 -6.234,-13.013 0.795,-5.695 5.962,-10.485 3.946,-16.549 -0.567,0.33 -1.134,0.66 -1.702,0.991 3.351,3.861 4.818,9.18 3.828,14.208 -1.012,5.139 -3.672,10.242 -1.197,15.397 0.537,1.118 2.177,0.142 1.659,-0.97 -2.48,-5.328 1.531,-11.253 1.833,-16.652 0.273,-4.898 -1.491,-9.731 -4.684,-13.422 -0.663,-0.767 -2.014,0.046 -1.702,0.991 1.102,3.334 -0.408,6.574 -1.781,9.577 -1.205,2.636 -2.245,5.296 -2.179,8.241 0.113,5.066 3.077,9.969 7.479,12.458 0.816,0.459 1.541,-0.781 0.734,-1.257 z"
         id="path1240" /></g><g
       id="g1246"><path
         style="fill:#591f10"
         d="m 46.464,452.789 c 4.402,-2.489 7.366,-7.393 7.479,-12.458 0.064,-2.868 -0.917,-5.473 -2.089,-8.044 -1.397,-3.063 -2.998,-6.365 -1.871,-9.774 0.312,-0.944 -1.038,-1.758 -1.702,-0.991 -3.192,3.691 -4.957,8.524 -4.684,13.422 0.301,5.399 4.313,11.324 1.833,16.652 -0.517,1.111 1.122,2.09 1.66,0.97 2.476,-5.155 -0.185,-10.258 -1.197,-15.397 -0.99,-5.028 0.476,-10.346 3.828,-14.208 -0.567,-0.33 -1.135,-0.66 -1.702,-0.991 -2.016,6.064 3.151,10.855 3.946,16.55 0.714,5.111 -1.798,10.397 -6.234,13.013 -0.806,0.476 -0.083,1.717 0.733,1.256 z"
         id="path1244" /></g></g><path
     style="fill:#ffffff"
     d="m 187.531,378.308 c 6.923,0.722 13.501,-2.37 17.384,-8.143 -1.237,7.493 -10.836,11.978 -17.384,8.143 z"
     id="path1250" /><path
     style="fill:#ffffff"
     d="m 204.733,386.497 c -6.411,6.956 -10.716,15.364 -12.643,24.624 -0.957,-9.618 4.277,-19.789 12.643,-24.624 z"
     id="path1252" /><path
     style="fill:#ffffff"
     d="m 165.791,396.134 c 4.449,0.32 8.523,-0.52 12.496,-2.544 -2.099,4.401 -8.841,5.764 -12.496,2.544 z"
     id="path1254" /><path
     style="fill:#ffffff"
     d="m 144.025,417.828 c 5.833,0.564 11.415,-0.945 16.186,-4.344 -2.729,5.647 -10.995,7.855 -16.186,4.344 z"
     id="path1256" /><path
     style="fill:#ffffff"
     d="m 76.007,426.273 c 3.862,0.7 7.387,0.76 11.274,0.224 -2.739,3.271 -8.663,3.145 -11.274,-0.224 z"
     id="path1258" /><path
     style="fill:#ffffff"
     d="m 101.6,449.774 c 5.278,-1.023 9.859,-3.375 13.785,-7.045 -1.567,5.507 -8.406,8.991 -13.785,7.045 z"
     id="path1260" /><path
     style="fill:#ffffff"
     d="m 122.208,430.08 c 4.029,0.32 7.664,-0.112 11.515,-1.338 -2.288,3.771 -8.422,4.475 -11.515,1.338 z"
     id="path1262" /><path
     style="fill:#ffffff"
     d="m 224.579,423.714 c 0.196,3.482 -3.221,6.781 -6.697,6.441 1.018,-1.098 2.292,-2.231 3.331,-3.239 1.052,-1 2.229,-2.221 3.366,-3.202 z"
     id="path1264" /><path
     style="fill:#ffffff"
     d="m 156.212,335.536 c 0.229,2.298 -0.253,4.305 -1.527,6.235 -1.508,-1.975 -0.715,-5.174 1.527,-6.235 z"
     id="path1266" /><path
     style="fill:#ffffff"
     d="m 47.306,433.32 c 2.998,2.069 3.932,6.722 1.943,9.779 -0.459,-1.514 -0.764,-3.362 -1.08,-4.868 -0.282,-1.518 -0.702,-3.331 -0.863,-4.911 z"
     id="path1268" /><path
     style="fill:#ffffff"
     d="m 268.52,436.441 c 3.255,2.651 7.43,2.933 11.023,0.77 -1.78,4.948 -9.944,4.369 -11.023,-0.77 z"
     id="path1270" /></g><g
   id="Logo_Lock-up"
   transform="matrix(0.72434162,0,0,0.72434162,52.058577,56.581836)">
		<path
   class="st0"
   d="m 135.6,92.2 h 7.9 v 40.2 c 0,10.6 -4.7,17.9 -15.6,17.9 -3.2,0.1 -6.4,-0.5 -9.5,-1.5 v -7.7 c 2.6,1 5.4,1.5 8.2,1.5 6.7,0 9,-4 9,-9.8 z"
   id="path564" />
		<path
   class="st0"
   d="m 158,89.1 c 2.9,0 5.3,2.4 5.3,5.3 0,2.9 -2.4,5.3 -5.3,5.3 -2.9,0 -5.3,-2.4 -5.3,-5.3 v 0 c -0.2,-2.7 1.9,-5.1 4.6,-5.3 0.2,0 0.5,0 0.7,0 z m -3.9,16.9 h 7.6 v 44 h -7.6 z"
   id="path566" />
		<path
   class="st0"
   d="m 180.5,150 h -7.4 v -44 h 7.4 v 7.8 c 2.6,-5.2 6.9,-8.9 15.6,-8.4 v 7.4 c -9.7,-1 -15.6,1.9 -15.6,11.3 z"
   id="path568" />
		<path
   class="st0"
   d="m 231.5,142.1 c -2.8,5.8 -8.1,8.8 -14.9,8.8 -11.7,0 -17.6,-9.9 -17.6,-22.9 0,-12.4 6.2,-22.9 18.5,-22.9 6.4,0 11.4,2.9 14,8.6 V 106 h 7.6 v 44 h -7.6 z m -12.8,1.7 c 6.8,0 12.9,-4.3 12.9,-14.1 v -3.5 c 0,-9.8 -5.6,-14.1 -12,-14.1 -8.5,0 -12.9,5.6 -12.9,15.8 -0.1,10.7 4.2,15.9 12,15.9 z"
   id="path570" />
		<path
   class="st1"
   d="M 95.9,83.2 H 61.3 c 0,8.6 7,15.6 15.6,15.6 0,0 0,0 0,0 h 6.4 v 6.1 c 0,8.6 7,15.6 15.6,15.6 v 0 -34.3 c 0,-1.7 -1.4,-3 -3,-3 z"
   id="path572" />

			<linearGradient
   id="SVGID_1_"
   gradientUnits="userSpaceOnUse"
   x1="81.0326"
   y1="101.5272"
   x2="66.322601"
   y2="86.357201"
   gradientTransform="matrix(1,0,0,-1,0,202)">
			<stop
   offset="0.18"
   style="stop-color:#0050D3"
   id="stop574" />
			<stop
   offset="1"
   style="stop-color:#0082FF"
   id="stop576" />
		</linearGradient>
		<path
   class="st2"
   d="M 78.8,100.4 H 44.2 c 0,8.6 7,15.6 15.6,15.6 h 6.4 v 6.2 c 0,8.6 7,15.6 15.6,15.6 v -34.3 c 0,-1.7 -1.4,-3.1 -3,-3.1 z"
   id="path579"
   style="fill:url(#SVGID_1_)" />

			<linearGradient
   id="SVGID_00000142868825077026769710000002171626036159817864_"
   gradientUnits="userSpaceOnUse"
   x1="64.8974"
   y1="84.202599"
   x2="47.887402"
   y2="67.652603"
   gradientTransform="matrix(1,0,0,-1,0,202)">
			<stop
   offset="0.18"
   style="stop-color:#0050D3"
   id="stop581" />
			<stop
   offset="1"
   style="stop-color:#0082FF"
   id="stop583" />
		</linearGradient>
		<path
   style="fill:url(#SVGID_00000142868825077026769710000002171626036159817864_)"
   d="M 61.7,117.6 H 27.1 c 0,8.6 7,15.6 15.6,15.6 v 0 H 49 v 6.1 c 0,8.6 7,15.6 15.6,15.6 v 0 -34.4 c 0.1,-1.5 -1.3,-2.9 -2.9,-2.9 z"
   id="path586" />
	</g></g>
</svg>
